<svg xmlns="http://www.w3.org/2000/svg" viewBox="233.06 240.41 73.12 76.33" fill-rule="evenodd">
<path d=" 
M279.5415,247.7629
L279.4686,247.8405
C276.7598,250.3509 271.8717,250.7808 270.4529,254.5073
C272.8527,254.8991 274.9685,255.4127 276.8841,256.0117
C278.7891,256.6435 280.8067,257.4616 282.9840,258.5444
C284.0074,254.6905 280.2895,251.4880 279.5555,247.8684
L279.5415,247.7629
Z" 
style="fill-rule: evenodd; fill: #102a83; "/>
<path d=" 
M295.9428,259.7157
L295.8380,259.7345
C292.1669,260.1380 287.9841,257.5723 284.6251,259.7209
C286.3196,261.4649 287.7134,263.1375 288.8955,264.7595
C290.0496,266.4015 291.1832,268.2603 292.2874,270.4268
C295.4046,267.9403 294.3251,263.1535 295.8911,259.8087
L295.9428,259.7157
Z" 
style="fill-rule: evenodd; fill: #102a83; "/>
<path d=" 
M302.0037,278.4167
L301.9073,278.3715
C298.6802,276.5756 296.7544,272.0623 292.7715,271.8701
C293.1439,274.2731 293.3124,276.4438 293.3374,278.4507
C293.3281,280.4576 293.1766,282.6296 292.8230,285.0354
C296.8043,284.8121 298.6947,280.2839 301.9077,278.4627
L302.0037,278.4167
Z" 
style="fill-rule: evenodd; fill: #102a83; "/>
<path d=" 
M296.1215,297.1748
L296.0691,297.0821
C294.4770,293.7497 295.5190,288.9546 292.3824,286.4926
C291.2952,288.6676 290.1761,290.5353 289.0349,292.1862
C287.8656,293.8175 286.4849,295.5010 284.8041,297.2581
C288.1798,299.3804 292.3424,296.7820 296.0166,297.1567
L296.1215,297.1748
Z" 
style="fill-rule: evenodd; fill: #102a83; "/>
<path d=" 
M279.7742,309.3036
L279.7874,309.1980
C280.5003,305.5742 284.1994,302.3501 283.1536,298.5022
C280.9827,299.5977 278.9698,300.4276 277.0685,301.0705
C275.1565,301.6807 273.0437,302.2066 270.6462,302.6124
C272.0868,306.3306 276.9774,306.7319 279.7008,309.2265
L279.7742,309.3036
Z" 
style="fill-rule: evenodd; fill: #102a83; "/>
<path d=" 
M260.4216,309.5872
L260.4928,309.5081
C263.1464,306.9394 268.0240,306.4033 269.3615,302.6468
C266.9536,302.3072 264.8272,301.8398 262.8991,301.2825
C260.9808,300.6924 258.9458,299.9183 256.7455,298.8831
C255.8062,302.7585 259.5929,305.8793 260.4054,309.4820
L260.4216,309.5872
Z" 
style="fill-rule: evenodd; fill: #102a83; "/>
<path d=" 
M243.6981,297.9054
L243.8025,297.8846
C247.4656,297.4139 251.6947,299.9025 255.0138,297.6927
C253.2876,295.9801 251.8634,294.3333 250.6518,292.7332
C249.4678,291.1126 248.3003,289.2749 247.1566,287.1290
C244.0854,289.6723 245.2525,294.4384 243.7481,297.8114
L243.6981,297.9054
Z" 
style="fill-rule: evenodd; fill: #102a83; "/>
<path d=" 
M237.2889,278.9392
L237.3856,278.9838
C240.6246,280.7583 242.5801,285.2588 246.5641,285.4247
C246.1759,283.0242 245.9931,280.8547 245.9548,278.8480
C245.9509,276.8410 246.0880,274.6681 246.4257,272.2600
C242.4460,272.5096 240.5856,277.0502 237.3846,278.8926
L237.2889,278.9392
Z" 
style="fill-rule: evenodd; fill: #102a83; "/>
<path d=" 
M243.1847,259.9457
L243.2370,260.0384
C244.8264,263.3721 243.7804,268.1663 246.9150,270.6310
C248.0040,268.4569 249.1246,266.5901 250.2672,264.9401
C251.4378,263.3098 252.8199,261.6275 254.5021,259.8717
C251.1281,257.7466 246.9634,260.3416 243.2896,259.9638
L243.1847,259.9457
Z" 
style="fill-rule: evenodd; fill: #102a83; "/>
<path d=" 
M259.4866,247.8485
L259.4734,247.9542
C258.7641,251.5787 255.0682,254.8064 256.1178,258.6532
C258.2876,257.5556 260.2997,256.7238 262.2003,256.0791
C264.1117,255.4669 266.2239,254.9389 268.6211,254.5308
C267.1769,250.8140 262.2859,250.4175 259.5600,247.9256
L259.4866,247.8485
Z" 
style="fill-rule: evenodd; fill: #102a83; "/>
<path d=" 
M270.3234,245.8959
C270.9960,247.0809 272.0992,248.1017 273.0574,249.0118
C274.8663,250.7296 276.8098,252.5667 276.9555,255.3614
L277.0074,256.3564
L276.0959,256.2189
C273.9521,255.8953 271.7834,255.6866 269.6177,255.6866
C267.4520,255.6866 265.2833,255.8953 263.1394,256.2189
L262.2280,256.3564
L262.2798,255.3614
C262.3168,254.6536 262.4733,253.9747 262.7384,253.3272
C263.4537,251.5812 264.8777,250.2465 266.1779,249.0118
C267.1362,248.1017 268.2394,247.0809 268.9120,245.8959
L269.6177,244.4070
L270.3234,245.8959
Z" 
style="fill-rule: evenodd; fill: #ffffff; "/>
<path d=" 
M269.6177,246.2011
L269.5720,246.2973
C267.7636,249.5174 263.2427,251.4255 263.0350,255.4076
C265.4394,255.0446 267.6107,254.8846 269.6177,254.8674
C271.6246,254.8846 273.7960,255.0446 276.2004,255.4076
C275.9926,251.4255 271.4719,249.5174 269.6633,246.2973
L269.6177,246.2011
Z" 
style="fill-rule: evenodd; fill: #006ab3; "/>
<path d=" 
M289.3719,252.5152
C289.2210,253.8693 289.5150,255.3433 289.7567,256.6426
C290.2130,259.0951 290.7083,261.7231 289.1860,264.0713
L288.6440,264.9074
L287.9867,264.2611
C286.4409,262.7408 284.8076,261.2990 283.0541,260.0279
C281.3006,258.7568 279.4223,257.6529 277.4967,256.6566
L276.6780,256.2329
L277.3039,255.4577
C277.7493,254.9064 278.2745,254.4486 278.8691,254.0799
C280.4730,253.0861 282.4093,252.8413 284.1868,252.6048
C285.4967,252.4304 286.9891,252.2513 288.2291,251.6868
L289.6744,250.8954
L289.3719,252.5152
Z" 
style="fill-rule: evenodd; fill: #ffffff; "/>
<path d=" 
M288.6214,252.3480
L288.5280,252.3991
C285.1738,253.9447 280.3936,252.8362 277.8883,255.9384
C280.0480,257.0557 281.8999,258.2006 283.5349,259.3646
C285.1497,260.5564 286.8139,261.9604 288.5475,263.6655
C290.7165,260.3195 288.1761,256.1213 288.6019,252.4526
L288.6214,252.3480
Z" 
style="fill-rule: evenodd; fill: #006ab3; "/>
<path d=" 
M300.9093,269.0544
C299.9923,270.0621 299.3652,271.4282 298.7983,272.6219
C297.7283,274.8754 296.5869,277.2939 293.9762,278.3016
L293.0466,278.6604
L292.8938,277.7514
C292.5346,275.6132 292.0584,273.4872 291.3847,271.4289
C290.7112,269.3706 289.8383,267.3744 288.8639,265.4375
L288.4497,264.6140
L289.4115,264.3538
C290.0956,264.1688 290.7896,264.1064 291.4874,264.1569
C293.3693,264.2937 295.0807,265.2320 296.6586,266.0837
C297.8216,266.7113 299.1349,267.4423 300.4703,267.7130
L302.1049,267.9205
L300.9093,269.0544
Z" 
style="fill-rule: evenodd; fill: #ffffff; "/>
<path d=" 
M300.3998,268.4786
L300.2942,268.4651
C296.6713,267.7479 293.4517,264.0448 289.6025,265.0859
C290.6954,267.2582 291.5228,269.2720 292.1633,271.1741
C292.7712,273.0869 293.2945,275.2003 293.6974,277.5983
C297.4174,276.1623 297.8247,271.2723 300.3226,268.5518
L300.3998,268.4786
Z" 
style="fill-rule: evenodd; fill: #006ab3; "/>
<path d=" 
M300.5431,289.2168
C299.2092,289.4946 297.8998,290.2325 296.7401,290.8663
C294.5512,292.0628 292.2075,293.3509 289.5023,292.6345
L288.5391,292.3795
L288.9490,291.5537
C289.9130,289.6118 290.7753,287.6110 291.4380,285.5491
C292.1007,283.4873 292.5656,281.3587 292.9135,279.2187
L293.0615,278.3089
L293.9929,278.6627
C294.6554,278.9145 295.2539,279.2712 295.7892,279.7218
C297.2326,280.9370 298.0675,282.7011 298.8451,284.3168
C299.4184,285.5075 300.0527,286.8702 300.9750,287.8731
L302.1766,289.0006
L300.5431,289.2168
Z" 
style="fill-rule: evenodd; fill: #ffffff; "/>
<path d=" 
M300.4686,288.4516
L300.3909,288.3788
C297.8787,285.6716 297.4454,280.7838 293.7179,279.3676
C293.3278,281.7677 292.8157,283.8839 292.2179,285.7998
C291.5874,287.7052 290.7707,289.7234 289.6894,291.9015
C293.5441,292.9222 296.7440,289.2020 300.3630,288.4656
L300.4686,288.4516
Z" 
style="fill-rule: evenodd; fill: #006ab3; "/>
<path d=" 
M288.4128,305.3262
C287.1698,304.7682 285.6765,304.5971 284.3656,304.4296
C281.8911,304.1136 279.2375,303.7810 277.4677,301.6132
L276.8377,300.8414
L277.6541,300.4134
C279.5744,299.4069 281.4469,298.2931 283.1936,297.0126
C284.9403,295.7323 286.5659,294.2818 288.1037,292.7534
L288.7575,292.1036
L289.3040,292.9368
C289.6926,293.5294 289.9677,294.1695 290.1368,294.8485
C290.5922,296.6795 290.2327,298.5979 289.9140,300.3624
C289.6792,301.6629 289.3930,303.1385 289.5511,304.4918
L289.8622,306.1099
L288.4128,305.3262
Z" 
style="fill-rule: evenodd; fill: #ffffff; "/>
<path d=" 
M288.8015,304.6629
L288.7815,304.5583
C288.3363,300.8920 290.8543,296.6804 288.6676,293.3460
C286.9430,295.0602 285.2864,296.4730 283.6779,297.6734
C282.0491,298.8460 280.2033,300.0007 278.0495,301.1295
C280.5713,304.2183 285.3455,303.0844 288.7079,304.6123
L288.8015,304.6629
Z" 
style="fill-rule: evenodd; fill: #006ab3; "/>
<path d=" 
M269.1366,311.2494
C268.4577,310.0681 267.3491,309.0530 266.3860,308.1481
C264.5680,306.4399 262.6148,304.6131 262.4543,301.8193
L262.3971,300.8245
L263.3094,300.9572
C265.4549,301.2694 267.6246,301.4666 269.7903,301.4551
C271.9560,301.4436 274.1235,301.2235 276.2656,300.8885
L277.1763,300.7462
L277.1298,301.7415
C277.0966,302.4494 276.9437,303.1291 276.6820,303.7781
C275.9760,305.5278 274.5590,306.8700 273.2654,308.1116
C272.3120,309.0267 271.2142,310.0535 270.5479,311.2419
L269.8501,312.7346
L269.1366,311.2494
Z" 
style="fill-rule: evenodd; fill: #ffffff; "/>
<path d=" 
M269.8406,310.9405
L269.8857,310.8441
C271.6771,307.6145 276.1878,305.6824 276.3744,301.6993
C273.9720,302.0750 271.8015,302.2465 269.7947,302.2743
C267.7876,302.2678 265.6155,302.1193 263.2092,301.7691
C263.4380,305.7500 267.9689,307.6341 269.7945,310.8446
L269.8406,310.9405
Z" 
style="fill-rule: evenodd; fill: #006ab3; "/>
<path d=" 
M250.0532,304.7313
C250.1969,303.3764 249.8951,301.9039 249.6466,300.6060
C249.1772,298.1560 248.6680,295.5305 250.1778,293.1743
L250.7154,292.3354
L251.3761,292.9782
C252.9299,294.4902 254.5709,295.9234 256.3311,297.1852
C258.0912,298.4470 259.9754,299.5409 261.9063,300.5270
L262.7272,300.9463
L262.1054,301.7248
C261.6630,302.2784 261.1402,302.7390 260.5475,303.1109
C258.9489,304.1131 257.0139,304.3682 255.2378,304.6142
C253.9287,304.7955 252.4373,304.9825 251.2003,305.5536
L249.7593,306.3526
L250.0532,304.7313
Z" 
style="fill-rule: evenodd; fill: #ffffff; "/>
<path d=" 
M250.8046,304.8945
L250.8977,304.8428
C254.2437,303.2794 259.0296,304.3626 261.5185,301.2473
C259.3529,300.1414 257.4949,299.0063 255.8538,297.8510
C254.2327,296.6677 252.5611,295.2726 250.8185,293.5768
C248.6672,296.9342 251.2298,301.1189 250.8235,304.7897
L250.8046,304.8945
Z" 
style="fill-rule: evenodd; fill: #006ab3; "/>
<path d=" 
M238.4283,288.2535
C239.3398,287.2409 239.9597,285.8715 240.5203,284.6748
C241.5783,282.4157 242.7069,279.9912 245.3122,278.9696
L246.2398,278.6059
L246.3975,279.5141
C246.7681,281.6503 247.2556,283.7738 247.9401,285.8285
C248.6246,287.8832 249.5081,289.8748 250.4926,291.8064
L250.9112,292.6277
L249.9508,292.8930
C249.2677,293.0816 248.5741,293.1477 247.8759,293.1009
C245.9934,292.9741 244.2770,292.0449 242.6946,291.2016
C241.5284,290.5801 240.2111,289.8561 238.8744,289.5925
L237.2387,289.3936
L238.4283,288.2535
Z" 
style="fill-rule: evenodd; fill: #ffffff; "/>
<path d=" 
M238.9408,288.8266
L239.0465,288.8395
C242.6731,289.5375 245.9123,293.2235 249.7559,292.1619
C248.6516,289.9955 247.8135,287.9861 247.1629,286.0874
C246.5449,284.1779 246.0103,282.0673 245.5947,279.6714
C241.8825,281.1272 241.5011,286.0193 239.0176,288.7529
L238.9408,288.8266
Z" 
style="fill-rule: evenodd; fill: #006ab3; "/>
<path d=" 
M238.6875,268.0894
C240.0199,267.8046 241.3255,267.0597 242.4817,266.4198
C244.6643,265.2117 247.0010,263.9111 249.7100,264.6132
L250.6746,264.8631
L250.2691,265.6910
C249.3153,267.6381 248.4637,269.6434 247.8119,271.7088
C247.1602,273.7741 246.7066,275.9050 246.3700,278.0469
L246.2268,278.9575
L245.2936,278.6086
C244.6297,278.3603 244.0294,278.0068 243.4917,277.5591
C242.0419,276.3516 241.1976,274.5919 240.4114,272.9804
C239.8319,271.7926 239.1903,270.4334 238.2628,269.4353
L237.0552,268.3143
L238.6875,268.0894
Z" 
style="fill-rule: evenodd; fill: #ffffff; "/>
<path d=" 
M238.7661,268.8542
L238.8442,268.9267
C241.3707,271.6204 241.8299,276.5059 245.5648,277.9023
C245.9423,275.5001 246.4432,273.3813 247.0307,271.4622
C247.6511,269.5535 248.4571,267.5309 249.5268,265.3472
C245.6668,264.3470 242.4867,268.0840 238.8716,268.8397
L238.7661,268.8542
Z" 
style="fill-rule: evenodd; fill: #006ab3; "/>
<path d=" 
M250.7322,251.9159
C251.9782,252.4673 253.4724,252.6305 254.7842,252.7910
C257.2603,253.0939 259.9156,253.4125 261.6968,255.5708
L262.3310,256.3393
L261.5168,256.7716
C259.6019,257.7883 257.7354,258.9120 255.9955,260.2017
C254.2556,261.4913 252.6376,262.9504 251.1080,264.4869
L250.4577,265.1402
L249.9068,264.3099
C249.5150,263.7193 249.2365,263.0807 249.0639,262.4026
C248.5988,260.5740 248.9481,258.6538 249.2574,256.8876
C249.4853,255.5859 249.7637,254.1088 249.5984,252.7563
L249.2787,251.1400
L250.7322,251.9159
Z" 
style="fill-rule: evenodd; fill: #ffffff; "/>
<path d=" 
M250.3470,252.5813
L250.3677,252.6857
C250.8322,256.3496 248.3366,260.5745 250.5410,263.8973
C252.2564,262.1740 253.9056,260.7524 255.5077,259.5436
C257.1302,258.3623 258.9699,257.1978 261.1177,256.0576
C258.5795,252.9822 253.8114,254.1414 250.4409,252.6314
L250.3470,252.5813
Z" 
style="fill-rule: evenodd; fill: #006ab3; "/>
<path d=" 
M269.6454,254.5808
C282.8947,254.5808 293.6356,265.3216 293.6356,278.5710
C293.6356,291.8204 282.8947,302.5613 269.6454,302.5613
C256.3959,302.5613 245.6551,291.8204 245.6551,278.5710
C245.6551,265.3216 256.3959,254.5808 269.6454,254.5808
Z" 
style="fill-rule: evenodd; fill: #ffffff; "/>
<path d=" 
M269.6454,255.3283
C282.4819,255.3283 292.8880,265.7344 292.8880,278.5710
C292.8880,291.4075 282.4819,301.8137 269.6454,301.8137
C256.8088,301.8137 246.4026,291.4075 246.4026,278.5710
C246.4026,265.7344 256.8088,255.3283 269.6454,255.3283
Z" 
style="stroke-width: 0.5000; stroke: #1b1918; stroke-dasharray: none; stroke-linecap: butt; stroke-linejoin: miter; fill-rule: evenodd; fill: #ffffff; "/>
<path d=" 
M269.6454,264.1548
C277.6072,264.1548 284.0615,270.6092 284.0615,278.5710
C284.0615,286.5327 277.6072,292.9870 269.6454,292.9870
C261.6836,292.9870 255.2293,286.5327 255.2293,278.5710
C255.2293,270.6092 261.6836,264.1548 269.6454,264.1548
Z" 
style="stroke-width: 0.5000; stroke: #1b1918; stroke-dasharray: none; stroke-linecap: butt; stroke-linejoin: miter; fill-rule: evenodd; fill: #ffffff; "/>
<path d=" 
M251.4807,282.6556
L251.8514,283.6736
L252.9299,283.7085
L252.0763,284.3756
L252.3764,285.4121
L251.4781,284.8065
L250.5851,285.4121
L250.8835,284.3707
L250.0315,283.7085
L251.1142,283.6705
L251.4807,282.6556
Z" 
style="fill-rule: evenodd; fill: #006ab3; "/>
<path d=" 
M287.6481,283.0354
L288.0189,284.0534
L289.0974,284.0884
L288.2437,284.7555
L288.5438,285.7920
L287.6455,285.1863
L286.7525,285.7920
L287.0509,284.7505
L286.1989,284.0884
L287.2816,284.0504
L287.6481,283.0354
Z" 
style="fill-rule: evenodd; fill: #006ab3; "/>
<path d=" 
M269.7446,273.7793
C267.3907,271.4562 265.4046,270.6647 263.5305,270.3403
C267.0763,273.4294 269.0064,277.7528 269.7446,282.9867
C270.4829,277.7528 272.4130,273.4294 275.9588,270.3403
C274.0847,270.6647 272.0986,271.4562 269.7446,273.7793
Z" 
style="fill-rule: evenodd; fill: #108b81; "/>
<path d=" 
M269.7702,268.7250
C270.6210,268.7250 271.3108,269.4700 271.3108,270.3890
C271.3108,271.3080 270.6210,272.0529 269.7702,272.0529
C268.9193,272.0529 268.2295,271.3080 268.2295,270.3890
C268.2295,269.4700 268.9193,268.7250 269.7702,268.7250
Z" 
style="fill-rule: evenodd; fill: #108b81; "/>
<path d=" 
M269.7239,287.6680
C269.9580,286.2871 269.9653,285.1206 270.1994,283.7397
C271.0658,285.4099 272.4289,287.5061 269.6535,290.1467
C267.7227,288.0847 267.8926,285.7755 269.3672,283.7142
C269.7015,285.1545 269.3896,286.2278 269.7239,287.6680
Z" 
style="fill-rule: evenodd; fill: #006ab3; "/>
<path d=" 
M259.2787,281.2866
C260.5069,280.8270 261.4505,280.2596 262.6787,279.8000
C261.7591,281.4367 260.7407,283.7499 257.2463,282.4406
C257.9577,279.6104 259.9024,278.6335 262.2896,279.0051
C261.2934,280.0283 260.2749,280.2634 259.2787,281.2866
Z" 
style="fill-rule: evenodd; fill: #006ab3; "/>
<path d=" 
M280.1203,281.1010
C278.8921,280.6414 277.9485,280.0740 276.7202,279.6143
C277.6398,281.2510 278.6583,283.5643 282.1526,282.2549
C281.4412,279.4248 279.4965,278.4478 277.1093,278.8194
C278.1056,279.8427 279.1241,280.0778 280.1203,281.1010
Z" 
style="fill-rule: evenodd; fill: #006ab3; "/>
<path d=" 
M258.8990,274.6716
C259.7184,274.8206 260.4105,274.8251 261.2299,274.9742
C260.2388,275.5255 258.9951,276.3929 257.4283,274.6267
C258.6517,273.3981 260.0219,273.5062 261.2450,274.4446
C260.3904,274.6573 259.7536,274.4588 258.8990,274.6716
Z" 
style="fill-rule: evenodd; fill: #006ab3; "/>
<path d=" 
M280.4276,274.6716
C279.6083,274.8206 278.9162,274.8251 278.0968,274.9742
C279.0878,275.5255 280.3316,276.3929 281.8984,274.6267
C280.6749,273.3981 279.3047,273.5062 278.0817,274.4446
C278.9363,274.6573 279.5731,274.4588 280.4276,274.6716
Z" 
style="fill-rule: evenodd; fill: #006ab3; "/>
<path d=" 
M275.0824,284.7663
C274.5298,284.0961 274.1581,283.4655 273.6055,282.7954
C273.7002,283.9950 273.6817,285.5939 275.8998,286.0875
C276.2125,284.3151 275.3989,283.1194 274.0127,282.4999
C274.3004,283.3947 274.7947,283.8715 275.0824,284.7663
Z" 
style="fill-rule: evenodd; fill: #006ab3; "/>
<path d=" 
M264.4029,284.7465
C264.9556,284.0763 265.3273,283.4457 265.8799,282.7755
C265.7851,283.9752 265.8037,285.5741 263.5856,286.0677
C263.2729,284.2953 264.0865,283.0996 265.4727,282.4801
C265.1850,283.3748 264.6907,283.8517 264.4029,284.7465
Z" 
style="fill-rule: evenodd; fill: #006ab3; "/>
<path d=" 
M253.5222,277.9747
L253.5996,279.0842
L252.2438,279.3691
L252.2789,279.8702
L253.6611,279.9626
L253.7388,281.0718
L248.5814,280.5897
L248.4822,279.1712
L253.5222,277.9747
Z
Z
M251.5428,279.5105
L250.0319,279.7775
L251.5646,279.8240
L251.5428,279.5105
Z
Z
M253.8740,275.6985
L253.5443,277.7800
L248.4961,276.9803
L248.6718,275.8711
L253.0726,276.5682
L253.2266,275.5962
L253.8740,275.6985
Z
Z
M255.0183,271.8133
L254.7088,272.7658
L251.9804,271.8791
L254.5285,273.3211
L254.2893,274.0569
L251.3537,273.8081
L254.0820,274.6947
L253.8111,275.5287
L248.9502,273.9492
L249.3964,272.5761
L252.0777,272.9072
L249.6926,271.6639
L250.1575,270.2339
L255.0183,271.8133
Z
Z
M256.6636,268.9730
L256.1077,269.9359
L254.8242,269.4141
L254.5727,269.8492
L255.6672,270.6987
L255.1110,271.6617
L251.1051,268.3780
L251.8163,267.1464
L256.6636,268.9730
Z
Z
M254.1637,269.1394
L252.7620,268.5158
L254.0066,269.4112
L254.1637,269.1394
Z
Z
M255.2987,267.4998
L255.9694,266.7285
L256.8543,267.4979
C256.9425,267.5744 257.0329,267.5594 257.1245,267.4539
C257.2140,267.3510 257.2138,267.2623 257.1256,267.1858
L256.6687,266.7883
C256.5289,266.6667 256.2837,266.6169 255.9336,266.6395
C255.2700,266.6962 254.8403,266.7161 254.6433,266.6996
C254.4474,266.6840 254.2776,266.6123 254.1342,266.4876
L253.7008,266.1109
C253.2005,265.6760 253.2342,265.1329 253.8017,264.4798
C254.3102,263.8950 254.7918,263.8009 255.2471,264.1969
L255.9138,264.7763
L255.2426,265.5485
L254.5328,264.9317
C254.4557,264.8645 254.3803,264.8730 254.3074,264.9566
C254.2212,265.0561 254.2527,265.1700 254.4015,265.2993
L254.6666,265.5009
C254.8097,265.6256 255.0597,265.6752 255.4152,265.6502
C256.0603,265.5921 256.4932,265.5731 256.7100,265.5941
C256.9280,265.6142 257.1228,265.7001 257.2929,265.8475
L257.7847,266.2753
C258.2983,266.7217 258.2702,267.2711 257.7010,267.9262
C257.1517,268.5577 256.6449,268.6700 256.1783,268.2643
L255.2987,267.4998
Z
Z
M262.2662,264.2210
L261.3336,264.8265
L260.4271,263.7788
L260.0056,264.0523
L260.5952,265.3061
L259.6626,265.9119
L257.5840,261.1675
L258.7765,260.3928
L262.2662,264.2210
Z
Z
M259.9634,263.2343
L258.9976,262.0423
L259.7000,263.4052
L259.9634,263.2343
Z
Z
M265.0796,263.1954
L263.9812,263.5523
L262.4142,261.1981
L263.2558,263.7879
L262.3646,264.0773
L260.7851,259.2164
L261.9978,258.8224
L263.3292,260.8407
L262.6089,258.6237
L263.5002,258.3343
L265.0796,263.1954
Z
Z
M265.3106,263.0058
L264.5994,257.9443
L265.9825,257.7498
C266.2835,257.7076 266.5638,257.7515 266.8215,257.8813
C267.0806,258.0120 267.2331,258.2473 267.2807,258.5860
L267.7113,261.6497
C267.7555,261.9652 267.6804,262.2254 267.4845,262.4323
C267.2901,262.6379 267.0287,262.7643 266.7010,262.8102
L265.3106,263.0058
Z
Z
M266.6032,261.8878
L266.1500,258.6623
C266.1250,258.4854 266.0105,258.4117 265.8030,258.4409
L266.3314,262.2002
C266.5389,262.1710 266.6285,262.0672 266.6032,261.8878
Z
Z
M272.4395,262.7303
L271.3300,262.6529
L271.2368,261.2704
L270.7353,261.2353
L270.4516,262.5914
L269.3424,262.5137
L270.5374,257.4737
L271.9562,257.5729
L272.4395,262.7303
Z
Z
M271.1940,260.5564
L271.1401,259.0234
L270.8807,260.5346
L271.1940,260.5564
Z
Z
M272.6130,262.6929
L274.1924,257.8317
L275.4502,258.2405
C275.7501,258.3380 275.9893,258.4911 276.1659,258.6991
C276.3439,258.9080 276.3825,259.1623 276.2847,259.4633
L276.0656,260.1377
C275.9545,260.4793 275.6693,260.6525 275.2072,260.6573
C275.6106,260.9087 275.7543,261.2137 275.6378,261.5726
L275.3314,262.5157
C275.2274,262.8360 275.0437,263.0424 274.7840,263.1336
C274.5227,263.2249 274.2480,263.2241 273.9586,263.1300
L272.6130,262.6929
Z
Z
M275.0029,259.9832
L275.2713,259.1569
C275.3266,258.9868 275.2546,258.8700 275.0567,258.8060
L274.6216,260.1445
C274.8195,260.2089 274.9470,260.1556 275.0029,259.9832
Z
Z
M274.2650,262.2546
L274.6644,261.0247
C274.7197,260.8546 274.6477,260.7378 274.4498,260.6734
L273.8835,262.4162
C274.0816,262.4805 274.2089,262.4270 274.2650,262.2546
Z
Z
M275.2203,263.5058
L277.3806,258.8737
L278.6462,259.4639
C278.9218,259.5923 279.1329,259.7817 279.2784,260.0311
C279.4246,260.2820 279.4241,260.5623 279.2798,260.8722
L277.9722,263.6762
C277.8375,263.9650 277.6326,264.1422 277.3559,264.2088
C277.0807,264.2754 276.7927,264.2391 276.4928,264.0991
L275.2203,263.5058
Z
Z
M276.9131,263.2723
L278.2896,260.3203
C278.3653,260.1581 278.3092,260.0342 278.1193,259.9458
L276.5151,263.3862
C276.7051,263.4746 276.8366,263.4367 276.9131,263.2723
Z
Z
M280.7167,260.5079
L281.6365,261.1522
L279.1755,264.6672
C279.1168,264.7511 279.1383,264.8285 279.2418,264.9010
C279.3427,264.9716 279.4226,264.9654 279.4813,264.8815
L281.9426,261.3665
L282.8625,262.0106
L280.4360,265.4756
C280.2665,265.7177 280.0355,265.8339 279.7421,265.8263
C279.4490,265.8183 279.1460,265.7041 278.8328,265.4850
C278.5428,265.2820 278.3319,265.0467 278.2023,264.7777
C278.0734,264.5104 278.1006,264.2443 278.2862,263.9792
L280.7167,260.5079
Z
Z
M281.5999,267.8355
L280.0587,266.3983
L283.5445,262.6603
L284.3660,263.4262
L281.3272,266.6846
L282.0470,267.3558
L281.5999,267.8355
Z
Z
M283.3775,271.5469
L283.1284,271.1778
C282.8721,270.7974 282.9229,270.4856 283.2840,270.2421
C282.7514,269.4523 282.7397,268.8863 283.2480,268.5433
L285.9755,266.7036
C286.5251,266.3331 287.0393,266.5040 287.5204,267.2172
C287.9949,267.9205 287.9600,268.4560 287.4144,268.8239
L284.6869,270.6636
C284.3912,270.8631 284.0635,270.8583 283.7041,270.6471
C283.6366,270.6925 283.6114,270.7447 283.6264,270.8036
C283.6406,270.8617 283.7214,270.9995 283.8677,271.2163
L283.3775,271.5469
Z
Z
M284.0247,269.7908
L286.9115,267.8437
C286.9963,267.7864 287.0039,267.7065 286.9345,267.6036
C286.8644,267.4998 286.7868,267.4757 286.7020,267.5330
L283.8152,269.4801
C283.7305,269.5374 283.7234,269.6185 283.7934,269.7222
C283.8628,269.8251 283.9399,269.8481 284.0247,269.7908
Z
Z
M285.1432,274.2188
L284.7447,273.1808
L285.9582,272.5118
L285.7779,272.0424
L284.4292,272.3584
L284.0306,271.3201
L289.1035,270.2735
L289.6132,271.6010
L285.1432,274.2188
Z
Z
M286.5872,272.1713
L287.9538,271.4746
L286.4747,271.8780
L286.5872,272.1713
Z
Z
M285.1965,274.3727
L290.2448,273.5734
L290.4633,274.9527
C290.5109,275.2532 290.4718,275.5338 290.3465,275.7940
C290.2204,276.0554 289.9877,276.2118 289.6500,276.2654
L286.5940,276.7493
C286.2794,276.7992 286.0180,276.7283 285.8080,276.5364
C285.5988,276.3454 285.4681,276.0863 285.4162,275.7594
L285.1965,274.3727
Z
Z
M286.3369,275.6455
L289.5540,275.1361
C289.7306,275.1080 289.8020,274.9924 289.7691,274.7854
L286.0197,275.3793
C286.0526,275.5860 286.1578,275.6738 286.3369,275.6455
Z
Z
M285.6643,278.2593
L285.5665,277.1405
L290.6580,276.6949
L290.7561,277.8137
L285.6643,278.2593
Z
Z
M285.5098,281.2419
L285.5880,280.1217
C285.7411,280.0106 286.1555,279.9797 286.8316,280.0270
L286.8386,280.0276
L287.1442,280.0548
C287.5674,280.0919 287.7843,280.1106 287.7939,280.1115
C287.9663,280.1234 288.0618,280.0142 288.0780,279.7812
L285.6314,279.6100
L285.7096,278.4898
L290.8083,278.8464
L290.7116,280.2300
C290.6895,280.5454 290.5988,280.8147 290.4369,281.0375
C290.2759,281.2618 290.0395,281.3624 289.7266,281.3406
L289.1149,281.2978
C288.7194,281.2700 288.4671,281.0194 288.3597,280.5474
C288.2183,281.0047 287.9218,281.2181 287.4688,281.1864
L286.9118,281.1288
C286.0963,281.0718 285.6288,281.1098 285.5098,281.2419
Z
Z
M288.9422,280.1917
L289.7810,280.2504
C289.9593,280.2628 290.0560,280.1537 290.0721,279.9207
L288.6959,279.8243
C288.6797,280.0573 288.7625,280.1792 288.9422,280.1917
Z" 
style="fill-rule: evenodd; fill: #6e6f70; "/>
<path d=" 
M250.9275,288.0888
L253.6058,286.6039
L255.1075,289.3127
L254.6385,289.5725
L253.4827,287.4874
L252.7780,287.8783
L253.4029,289.0059
L252.9144,289.2769
L252.2892,288.1490
L251.2731,288.7124
L250.9275,288.0888
Z
Z
M254.8452,290.2105
C255.0554,290.0277 255.2331,289.9428 255.3790,289.9534
C255.5247,289.9661 255.6950,290.0836 255.8903,290.3082
L257.3681,292.0081
C257.5634,292.2327 257.6562,292.4180 257.6481,292.5639
C257.6386,292.7099 257.5298,292.8737 257.3193,293.0568
L256.1011,294.1155
C255.8901,294.2991 255.7116,294.3849 255.5673,294.3726
C255.4219,294.3604 255.2521,294.2419 255.0568,294.0173
L253.5793,292.3174
C253.3840,292.0928 253.2904,291.9083 253.2982,291.7624
C253.3061,291.6178 253.4160,291.4529 253.6270,291.2695
L254.8452,290.2105
Z
Z
M253.9834,291.9040
L255.5244,293.6766
L256.9870,292.4050
L255.4463,290.6326
L253.9834,291.9040
Z
Z
M259.2959,293.6004
L257.9418,295.6855
L259.6445,296.7911
L260.9983,294.7063
L261.5937,295.0928
L260.3199,297.0543
C260.1678,297.2889 260.0196,297.4205 259.8778,297.4484
C259.7346,297.4769 259.5387,297.4096 259.2889,297.2474
L257.6668,296.1941
C257.4189,296.0333 257.2781,295.8816 257.2455,295.7392
C257.2119,295.5968 257.2716,295.4080 257.4240,295.1737
L258.6978,293.2122
L259.2959,293.6004
Z
Z
M261.6331,298.4553
L262.6302,295.5597
L263.0900,295.7181
L264.5417,298.1265
C264.5911,298.2074 264.6334,298.2814 264.6695,298.3503
C264.7053,298.4192 264.7354,298.4870 264.7612,298.5546
C264.8070,298.3883 264.8390,298.2708 264.8586,298.2019
C264.8781,298.1336 264.8941,298.0804 264.9066,298.0441
L265.4301,296.5237
L266.0350,296.7320
L265.0381,299.6277
L264.5781,299.4692
L263.0680,296.9485
C263.0322,296.8853 263.0013,296.8283 262.9758,296.7789
C262.9500,296.7293 262.9272,296.6794 262.9077,296.6300
C262.8854,296.7217 262.8637,296.8093 262.8412,296.8904
C262.8184,296.9715 262.7967,297.0404 262.7764,297.0993
L262.2380,298.6633
L261.6331,298.4553
Z
Z
M267.6934,299.3602
L268.6114,299.4408
C269.0999,299.4833 269.4525,299.4378 269.6695,299.3040
C269.8868,299.1692 270.0113,298.9267 270.0419,298.5771
C270.0693,298.2646 270.0053,298.0218 269.8499,297.8466
C269.6945,297.6714 269.4514,297.5686 269.1202,297.5395
L267.8624,297.4297
L267.6934,299.3602
Z
Z
M266.9328,299.8723
L267.1997,296.8215
L269.1631,296.9935
C269.7224,297.0423 270.1415,297.2111 270.4203,297.4986
C270.6976,297.7869 270.8158,298.1713 270.7738,298.6520
C270.7488,298.9376 270.6672,299.1888 270.5302,299.4060
C270.3930,299.6244 270.2118,299.7891 269.9866,299.9013
C269.8475,299.9724 269.6768,300.0183 269.4761,300.0383
C269.2759,300.0587 269.0215,300.0552 268.7139,300.0283
L266.9328,299.8723
Z
Z
M272.7428,298.6251
L274.0633,298.3924
L273.1964,297.2799
L272.7428,298.6251
Z
Z
M271.6052,300.0668
L272.7794,296.7502
L273.4554,296.6308
L275.7166,299.3418
L274.9289,299.4809
L274.4506,298.8863
L272.5388,299.2235
L272.3045,299.9434
L271.6052,300.0668
Z
Z
M276.9646,296.1119
L277.9064,298.4434
L277.2456,298.7103
L276.3036,296.3788
L275.0007,296.9053
L274.7957,296.3973
L278.0675,295.0752
L278.2729,295.5833
L276.9646,296.1119
Z
Z
M280.2243,297.2775
L278.6931,294.6252
L279.3107,294.2688
L280.8419,296.9208
L280.2243,297.2775
Z
Z
M280.8924,294.2042
C280.7058,293.9970 280.6179,293.8212 280.6260,293.6750
C280.6361,293.5293 280.7505,293.3565 280.9719,293.1574
L282.6458,291.6503
C282.8668,291.4512 283.0505,291.3552 283.1964,291.3606
C283.3426,291.3677 283.5084,291.4738 283.6950,291.6807
L284.7748,292.8802
C284.9620,293.0880 285.0510,293.2651 285.0412,293.4094
C285.0315,293.5551 284.9159,293.7271 284.6948,293.9262
L283.0209,295.4333
C282.7998,295.6324 282.6170,295.7292 282.4708,295.7238
C282.3260,295.7183 282.1594,295.6115 281.9722,295.4037
L280.8924,294.2042
Z
Z
M282.6005,295.0361
L284.3460,293.4648
L283.0491,292.0244
L281.3036,293.5958
L282.6005,295.0361
Z
Z
M286.4547,291.9672
L283.8575,290.3442
L284.1152,289.9319
L286.7886,289.0590
C286.8784,289.0292 286.9603,289.0045 287.0355,288.9850
C287.1106,288.9655 287.1833,288.9514 287.2552,288.9416
C287.1033,288.8594 286.9961,288.8019 286.9335,288.7674
C286.8711,288.7330 286.8231,288.7056 286.7905,288.6850
L285.4267,287.8330
L285.7657,287.2902
L288.3630,288.9131
L288.1050,289.3260
L285.3092,290.2301
C285.2395,290.2509 285.1774,290.2680 285.1231,290.2819
C285.0692,290.2957 285.0155,290.3065 284.9628,290.3147
C285.0472,290.3567 285.1277,290.3980 285.2018,290.4381
C285.2756,290.4785 285.3380,290.5151 285.3906,290.5480
L286.7935,291.4247
L286.4547,291.9672
Z" 
style="fill-rule: evenodd; fill: #6e6f70; "/>
</svg>